<?xml version="1.0" encoding="utf-8"?><svg viewBox="0 0 18 18" xmlns="http://www.w3.org/2000/svg" xmlns:xlink="http://www.w3.org/1999/xlink"><style>:root>svg{display:none}:root>svg:target{display:block}</style><svg fill="none" viewBox="0 0 16 16" id="registration" xmlns="http://www.w3.org/2000/svg"><g clip-path="url(#aclip0)" fill="#868594"><path d="M2.667 4.5a3.17 3.17 0 013.166-3.167h6.09A1.83 1.83 0 0010.166 0H2.5A1.835 1.835 0 00.667 1.833v10.334C.667 13.178 1.489 14 2.5 14h.167V4.5z"/><path d="M13.5 2.667H5.833A1.835 1.835 0 004 4.5v9.667C4 15.178 4.822 16 5.833 16H13.5a1.835 1.835 0 001.833-1.833V4.5A1.835 1.835 0 0013.5 2.667zM12.167 14h-5a.5.5 0 010-1h5a.5.5 0 010 1zm0-2.667h-5a.5.5 0 010-1h5a.5.5 0 010 1zm0-2.333h-5a.5.5 0 010-1h5a.5.5 0 010 1zm0-2.667h-5a.5.5 0 010-1h5a.5.5 0 010 1z"/></g><defs><clipPath id="aclip0"><path fill="#fff" d="M0 0h16v16H0z"/></clipPath></defs></svg><svg fill="none" viewBox="0 0 18 18" id="settings" xmlns="http://www.w3.org/2000/svg"><path d="M14.572 9.735c.03-.24.053-.48.053-.735s-.023-.495-.053-.735l1.583-1.238a.378.378 0 00.09-.48l-1.5-2.594a.377.377 0 00-.457-.165l-1.868.75a5.48 5.48 0 00-1.268-.736l-.284-1.987A.366.366 0 0010.5 1.5h-3a.366.366 0 00-.367.315l-.285 1.988a5.762 5.762 0 00-1.268.734l-1.868-.75a.366.366 0 00-.457.166l-1.5 2.595a.37.37 0 00.09.48l1.583 1.237c-.03.24-.053.487-.053.735s.022.495.053.735l-1.583 1.238a.378.378 0 00-.09.48l1.5 2.595c.09.165.292.225.458.165l1.867-.75c.39.3.81.547 1.268.735l.285 1.987c.022.18.18.315.367.315h3a.366.366 0 00.367-.315l.285-1.987a5.762 5.762 0 001.268-.736l1.867.75c.173.068.368 0 .458-.165l1.5-2.595a.378.378 0 00-.09-.48l-1.583-1.237zM9 11.625A2.628 2.628 0 016.375 9 2.628 2.628 0 019 6.375 2.628 2.628 0 0111.625 9 2.628 2.628 0 019 11.625z" fill="#868594"/></svg></svg>