<svg width="20" height="20" fill="none" xmlns="http://www.w3.org/2000/svg"><path d="M10 14.727a3.164 3.164 0 100-6.329 3.164 3.164 0 000 6.329zm4.62-11.172l-.201-1.011a1.175 1.175 0 00-1.15-.942H6.73c-.556 0-1.04.396-1.149.942l-.202 1.01h9.242z" fill="#888BA0"/><path d="M18.242 4.727H1.758A1.76 1.76 0 000 6.484v10.157a1.76 1.76 0 001.758 1.757h16.484A1.76 1.76 0 0020 16.641V6.484a1.76 1.76 0 00-1.758-1.757zM5 8.398H3.125a.586.586 0 010-1.171H5a.586.586 0 010 1.171zm5 7.5a4.34 4.34 0 01-4.336-4.335A4.34 4.34 0 0110 7.226a4.34 4.34 0 014.336 4.335A4.34 4.34 0 0110 15.899z" fill="#888BA0"/></svg>