<svg width="30" height="30" fill="none" xmlns="http://www.w3.org/2000/svg"><path d="M20.545 4.008h-2.877a5.094 5.094 0 00-2.117.332c-.674.26-1.283.66-1.788 1.173a5.002 5.002 0 00-1.136 1.801 4.969 4.969 0 00-.281 2.106v2.497H9.452a.455.455 0 00-.418.277.444.444 0 00-.034.172v3.614a.448.448 0 00.452.447h2.892v9.125a.446.446 0 00.452.448h3.776a.446.446 0 00.452-.448v-9.121h3.382a.454.454 0 00.451-.448v-3.617a.447.447 0 00-.132-.317.455.455 0 00-.321-.132h-3.38V9.8c0-1.017.245-1.534 1.586-1.534h1.938A.446.446 0 0021 7.82V4.461a.446.446 0 00-.28-.419.457.457 0 00-.175-.034z" fill="#0076FF"/></svg>