<svg width="16" height="16" fill="none" xmlns="http://www.w3.org/2000/svg"><g clip-path="url(#clip0)" fill="#868594"><path d="M2.667 4.5a3.17 3.17 0 013.166-3.167h6.09A1.83 1.83 0 0010.166 0H2.5A1.835 1.835 0 00.667 1.833v10.334C.667 13.178 1.489 14 2.5 14h.167V4.5z"/><path d="M13.5 2.667H5.833A1.835 1.835 0 004 4.5v9.667C4 15.178 4.822 16 5.833 16H13.5a1.835 1.835 0 001.833-1.833V4.5A1.835 1.835 0 0013.5 2.667zM12.167 14h-5a.5.5 0 010-1h5a.5.5 0 010 1zm0-2.667h-5a.5.5 0 010-1h5a.5.5 0 010 1zm0-2.333h-5a.5.5 0 010-1h5a.5.5 0 010 1zm0-2.667h-5a.5.5 0 010-1h5a.5.5 0 010 1z"/></g><defs><clipPath id="clip0"><path fill="#fff" d="M0 0h16v16H0z"/></clipPath></defs></svg>