<svg width="520" height="523" fill="none" xmlns="http://www.w3.org/2000/svg"><path d="M50.006 440.582l-4.58-18.112a234.173 234.173 0 00-24.883-8.953l-.578 8.418-2.344-9.274C7.134 409.655 0 408.333 0 408.333s9.634 36.745 29.848 64.837l23.55 4.149-18.295 2.645a94.913 94.913 0 008.181 8.696c29.402 27.367 62.15 39.924 73.145 28.045 10.995-11.879-3.927-43.692-33.329-71.056-9.114-8.484-20.564-15.292-32.026-20.652l-1.068 15.585z" fill="#F9F9F9"/><path d="M93.56 420.909l5.416-17.879a235.072 235.072 0 00-16.686-20.561l-4.834 6.906 2.773-9.154c-7.428-8.006-12.853-12.836-12.853-12.836s-10.692 36.45-7.872 70.975l18.022 15.759-17.028-7.219a95.383 95.383 0 002.523 11.687c11.062 38.667 32.624 66.39 48.159 61.921 15.534-4.469 19.16-39.438 8.098-78.105-3.429-11.988-9.722-23.751-16.771-34.279l-8.947 12.785z" fill="#F2F2F2"/><path d="M362.853 123.899h-2.856V45.422a45.539 45.539 0 00-3.448-17.382 45.445 45.445 0 00-9.819-14.736 45.297 45.297 0 00-14.696-9.846A45.186 45.186 0 00314.7 0H148.889a45.233 45.233 0 00-32.029 13.304 45.485 45.485 0 00-13.267 32.118V475.96a45.518 45.518 0 003.448 17.382 45.428 45.428 0 009.819 14.736 45.297 45.297 0 0014.695 9.847 45.202 45.202 0 0017.334 3.457H314.7a45.233 45.233 0 0032.029-13.304 45.483 45.483 0 0013.267-32.118v-296.2h2.857v-55.861z" fill="#E6E6E6"/><path d="M316.527 11.813h-21.642a16.149 16.149 0 01-1.542 15.076 16.093 16.093 0 01-5.782 5.233 16.038 16.038 0 01-7.557 1.892h-94.991c-2.636 0-5.23-.65-7.556-1.892a16.087 16.087 0 01-5.782-5.234 16.16 16.16 0 01-1.542-15.076h-20.215a33.777 33.777 0 00-23.919 9.936 33.968 33.968 0 00-9.908 23.985v429.913a33.967 33.967 0 009.908 23.986 33.778 33.778 0 0023.919 9.935h166.609a33.782 33.782 0 0023.92-9.935 33.97 33.97 0 009.907-23.986V45.733a33.967 33.967 0 00-9.908-23.985 33.777 33.777 0 00-23.919-9.935z" fill="#fff"/><path d="M211.993 183.068a17.135 17.135 0 012.287-8.559 17.087 17.087 0 016.251-6.264 17.03 17.03 0 00-17.07-.002 17.084 17.084 0 00-6.249 6.265 17.159 17.159 0 000 17.118 17.084 17.084 0 006.249 6.265 17.036 17.036 0 008.535 2.293 17.04 17.04 0 008.535-2.295 17.09 17.09 0 01-6.251-6.262 17.135 17.135 0 01-2.287-8.559z" fill="#CCC"/><path d="M233.451 183.068a17.135 17.135 0 012.287-8.559 17.087 17.087 0 016.251-6.264 17.03 17.03 0 00-17.07-.002 17.084 17.084 0 00-6.249 6.265 17.159 17.159 0 000 17.118 17.084 17.084 0 006.249 6.265 17.038 17.038 0 008.535 2.293 17.04 17.04 0 008.535-2.295 17.09 17.09 0 01-6.251-6.262 17.135 17.135 0 01-2.287-8.559z" fill="#CCC"/><path d="M254.422 200.184c9.427 0 17.069-7.663 17.069-17.116 0-9.454-7.642-17.117-17.069-17.117s-17.069 7.663-17.069 17.117c0 9.453 7.642 17.116 17.069 17.116z" fill="#0076FF"/><path d="M282.949 236.529h-99.483a3.574 3.574 0 01-2.525-1.05 3.59 3.59 0 01-1.047-2.532v-99.759a3.59 3.59 0 011.047-2.532 3.574 3.574 0 012.525-1.05h99.483a3.574 3.574 0 012.525 1.05 3.595 3.595 0 011.048 2.532v99.759a3.595 3.595 0 01-1.048 2.532 3.574 3.574 0 01-2.525 1.05zM183.466 131.04a2.15 2.15 0 00-2.143 2.149v99.759a2.15 2.15 0 002.143 2.149h99.483a2.143 2.143 0 001.515-.63c.402-.403.628-.949.629-1.519v-99.759a2.156 2.156 0 00-.629-1.519 2.139 2.139 0 00-1.515-.63h-99.483zm121.696 181.959H152.585v1.433h152.577v-1.433z" fill="#EBEDF5"/><path d="M157.403 304.052a4.825 4.825 0 004.819-4.832 4.826 4.826 0 00-4.819-4.832 4.825 4.825 0 00-4.818 4.832 4.825 4.825 0 004.818 4.832z" fill="#0076FF"/><path d="M305.162 361.314H152.585v1.433h152.577v-1.433z" fill="#EBEDF5"/><path d="M157.403 352.368a4.825 4.825 0 004.819-4.831 4.825 4.825 0 00-4.819-4.832 4.825 4.825 0 00-4.818 4.832 4.825 4.825 0 004.818 4.831zm144.967 63.966h-48.219a3.139 3.139 0 01-2.22-.924 3.156 3.156 0 01-.921-2.226v-16.947a3.159 3.159 0 01.921-2.227 3.139 3.139 0 012.22-.924h48.219a3.139 3.139 0 012.22.924 3.16 3.16 0 01.922 2.227v16.947a3.157 3.157 0 01-.922 2.226 3.139 3.139 0 01-2.22.924zM173.12 304.052a4.826 4.826 0 004.819-4.832 4.826 4.826 0 00-4.819-4.832 4.825 4.825 0 00-4.818 4.832 4.825 4.825 0 004.818 4.832zm15.718 0a4.826 4.826 0 004.819-4.832 4.826 4.826 0 00-4.819-4.832 4.825 4.825 0 00-4.818 4.832 4.825 4.825 0 004.818 4.832zm-15.718 48.316a4.825 4.825 0 004.819-4.831 4.826 4.826 0 00-4.819-4.832 4.825 4.825 0 00-4.818 4.832 4.825 4.825 0 004.818 4.831zm15.718 0a4.825 4.825 0 004.819-4.831 4.826 4.826 0 00-4.819-4.832 4.825 4.825 0 00-4.818 4.832 4.825 4.825 0 004.818 4.831z" fill="#0076FF"/><path d="M394.217 342.653c.343.157.672.342.985.551l31.313-13.401 1.117-8.271 12.512-.077-.739 18.97-41.329 10.96a7.458 7.458 0 01-.313.846 7.145 7.145 0 01-6.765 4.118 7.127 7.127 0 01-3.904-1.362 7.157 7.157 0 01-2.499-3.303 7.183 7.183 0 011.816-7.724 7.132 7.132 0 017.806-1.307zm50.477 171.907h-8.559l-4.072-33.104h12.632l-.001 33.104z" fill="#FFB8B8"/><path d="M430.022 512.108h16.506v10.421h-26.899c0-2.764 1.095-5.415 3.044-7.369a10.379 10.379 0 017.349-3.052z" fill="#F701A5"/><path d="M477.981 512.135l-8.518.842-7.289-32.545 12.571-1.242 3.236 32.945z" fill="#FFB8B8"/><path d="M463.14 511.137l16.427-1.623 1.019 10.372-26.77 2.644a10.45 10.45 0 012.309-7.633 10.392 10.392 0 017.015-3.76z" fill="#F701A5"/><path d="M447.076 286.42c9.47 0 17.147-7.699 17.147-17.195s-7.677-17.194-17.147-17.194c-9.469 0-17.146 7.698-17.146 17.194 0 9.496 7.677 17.195 17.146 17.195z" fill="#FFB8B8"/><path d="M434.222 507.865a3.126 3.126 0 01-3.082-2.588c-4.43-24.66-18.911-105.293-19.257-107.526a1.023 1.023 0 01-.011-.156v-6.012c0-.219.068-.432.195-.61l1.913-2.687a1.035 1.035 0 01.798-.437c10.907-.513 46.624-2.016 48.35.146 1.733 2.173 1.121 8.755.98 10.053l.007.135 16.047 102.906a3.162 3.162 0 01-2.593 3.595l-10.023 1.656a3.152 3.152 0 01-2.155-.43 3.165 3.165 0 01-1.354-1.736c-3.1-9.932-13.494-43.346-17.096-56.275a.354.354 0 00-.145-.2.347.347 0 00-.54.297c.18 12.325.615 43.77.765 54.631l.017 1.169a3.173 3.173 0 01-.813 2.146 3.151 3.151 0 01-2.045 1.03l-9.664.88a3.244 3.244 0 01-.294.013z" fill="#1B30C0"/><path d="M436.194 293.18c-2.992 1.784-4.783 5.062-5.81 8.398a79.721 79.721 0 00-3.41 19.013l-1.086 19.322-13.443 51.223c11.651 9.886 18.372 7.639 34.055-.447 15.684-8.086 17.476 2.696 17.476 2.696l3.136-43.584 4.481-47.627a21.106 21.106 0 00-3.394-3.273 34.586 34.586 0 00-29.63-6.297l-2.375.576z" fill="#0076FF"/><path d="M431.828 352.998c.362.137.712.301 1.048.493l30.961-15.539.514-8.419 12.771-.883.684 19.191-41.375 13.72a7.358 7.358 0 01-2.21 3.772 7.318 7.318 0 01-11.376-1.954 7.368 7.368 0 01.916-8.302 7.318 7.318 0 018.067-2.079z" fill="#FFB8B8"/><path d="M471.37 302.392c7.617 2.696 8.959 31.904 8.959 31.904-8.961-4.943-19.716 3.146-19.716 3.146s-2.24-7.639-4.929-17.525a17.212 17.212 0 013.585-16.175s4.483-4.048 12.101-1.35z" fill="#0076FF"/><path d="M462.451 273.773c-2.136-1.714-5.051 1.401-5.051 1.401l-1.709-15.425s-10.682 1.283-17.519-.428c-6.836-1.711-7.904 6.213-7.904 6.213a55.14 55.14 0 01-.214-9.64c.427-3.857 5.982-7.713 15.81-10.284 9.827-2.571 14.954 8.57 14.954 8.57 6.837 3.427 3.77 21.307 1.633 19.593z" fill="#2F2E41"/></svg>