<svg width="30" height="30" fill="none" xmlns="http://www.w3.org/2000/svg"><path d="M11.307 25.997a.083.083 0 01-.022.003C7.296 25.962 4 18.074 4 14.055c0-6.571 5.087-8.011 7.047-8.011a8.322 8.322 0 012.659.633c.133.056.268.108.404.155.719.245 1.513.234 2.204-.08a8.959 8.959 0 013.283-.769 6.906 6.906 0 013.17.699 6.674 6.674 0 012.462 2.057.754.754 0 01-.181 1.03c-.708.419-1.296 1-1.713 1.695a4.71 4.71 0 00-.672 2.28 4.38 4.38 0 00.664 2.441 4.579 4.579 0 001.92 1.707c.37.215.753.439.753.925 0 .317-2.615 7.138-6.416 7.138a5.293 5.293 0 01-2.166-.51 4.507 4.507 0 00-1.927-.45 5.082 5.082 0 00-1.527.401 7.677 7.677 0 01-2.657.601zM19.997 0a4.972 4.972 0 01-.193 2.076 5.077 5.077 0 01-1.03 1.83 5.267 5.267 0 01-1.696 1.28 1.26 1.26 0 01-1.745-1.6c.229-.61.569-1.18 1.01-1.683A5.74 5.74 0 0119.997 0z" fill="#262C53"/></svg>