<svg width="178" height="30" fill="none" xmlns="http://www.w3.org/2000/svg"><g clip-path="url(#clip0)"><path d="M123.998 7.957a8.717 8.717 0 00-4.862 1.482 8.788 8.788 0 00-3.224 3.949 8.85 8.85 0 00-.498 5.083 8.814 8.814 0 002.395 4.505 8.74 8.74 0 004.481 2.408 8.71 8.71 0 005.057-.5 8.766 8.766 0 003.928-3.24 8.837 8.837 0 001.475-4.89 8.833 8.833 0 00-2.567-6.218 8.736 8.736 0 00-6.185-2.58zm0 14.435a5.59 5.59 0 01-3.117-.95 5.634 5.634 0 01-2.067-2.53 5.657 5.657 0 011.215-6.146 5.605 5.605 0 012.873-1.545 5.581 5.581 0 013.241.321 5.62 5.62 0 012.518 2.077 5.664 5.664 0 01-.698 7.12 5.602 5.602 0 01-3.965 1.656v-.003zm22.484-4.292a4.305 4.305 0 01-1.276 2.989 4.26 4.26 0 01-5.989 0 4.305 4.305 0 01-1.276-2.99V8.212h-3.142V18.1c0 1.977.781 3.872 2.171 5.27a7.393 7.393 0 005.242 2.183 7.393 7.393 0 005.242-2.183 7.474 7.474 0 002.171-5.27V8.212h-3.142l-.001 9.887zm13.101-10.074a7.404 7.404 0 00-5.239 2.186 7.479 7.479 0 00-2.174 5.267v9.887h3.142V15.48a4.305 4.305 0 011.276-2.99 4.26 4.26 0 012.994-1.232 4.26 4.26 0 012.995 1.233 4.305 4.305 0 011.276 2.99v9.886h3.142V15.48a7.478 7.478 0 00-2.174-5.266 7.402 7.402 0 00-5.238-2.187z" fill="#1B30C0"/><path d="M54.252 15.48v9.886h3.147V15.48a4.31 4.31 0 011.252-3.035 4.265 4.265 0 013.019-1.259v-3.16a7.403 7.403 0 00-5.242 2.184 7.482 7.482 0 00-2.176 5.27z" fill="#F701A5"/><path d="M173.731 17.909v-6.663h3.772v-3.04h-3.772V2.005h-3.142v6.212h-2.57v3.04h2.57v6.652c0 1.977.78 3.874 2.17 5.273a7.404 7.404 0 005.243 2.189v-3.159a4.252 4.252 0 01-3.022-1.262 4.307 4.307 0 01-1.249-3.041z" fill="#1B30C0"/><path d="M71.26 7.957a8.716 8.716 0 00-4.426 1.206 8.777 8.777 0 00-3.213 3.291 8.835 8.835 0 00.174 8.899 8.77 8.77 0 003.338 3.162 8.714 8.714 0 008.846-.352 8.783 8.783 0 003.078-3.419h-3.836a5.577 5.577 0 01-7.928-.002 5.643 5.643 0 01-1.45-2.526h14.046a8.845 8.845 0 00-1.948-7.14 8.758 8.758 0 00-2.998-2.3 8.714 8.714 0 00-3.683-.818v-.001zm-5.383 7.217a5.638 5.638 0 012.02-2.93 5.59 5.59 0 016.727 0 5.64 5.64 0 012.02 2.93H65.877zm22.451 5.963L83.152 8.212h-3.387l6.869 17.155h3.385l6.87-17.155h-3.387l-5.174 12.925z" fill="#F701A5"/><path d="M105.687 22.395c-.967 0-1.917-.25-2.759-.727a5.618 5.618 0 01-2.047-1.997 5.656 5.656 0 01-.162-5.544 5.623 5.623 0 011.927-2.114 5.59 5.59 0 017.665 1.555h3.529a8.787 8.787 0 00-3.905-4.503 8.713 8.713 0 00-5.866-.957 8.74 8.74 0 00-5.121 3.028 8.826 8.826 0 00-2.017 5.62 8.82 8.82 0 002.017 5.618 8.74 8.74 0 005.121 3.03 8.713 8.713 0 005.866-.959 8.787 8.787 0 003.905-4.502h-3.529a5.619 5.619 0 01-2.011 1.8 5.583 5.583 0 01-2.613.652z" fill="#1B30C0"/><path d="M13.386 6.129c0 .446-.177.874-.49 1.19a1.669 1.669 0 01-2.367 0 1.687 1.687 0 010-2.38 1.668 1.668 0 012.367 0c.313.316.49.744.49 1.19zm-8.368 5.048c-.443 0-.869.177-1.183.492a1.687 1.687 0 000 2.379 1.669 1.669 0 002.367 0 1.687 1.687 0 000-2.378 1.668 1.668 0 00-1.181-.493h-.003zm3.347 6.728c-.444 0-.87.177-1.183.493a1.687 1.687 0 000 2.378 1.669 1.669 0 002.366 0 1.687 1.687 0 000-2.377 1.669 1.669 0 00-1.18-.493l-.003-.001zm-6.693 6.728a1.665 1.665 0 00-1.183.494A1.682 1.682 0 000 26.317c0 .447.176.875.49 1.19a1.669 1.669 0 002.366 0 1.687 1.687 0 000-2.379 1.669 1.669 0 00-1.183-.492l-.001-.003zm41.836-8.411c0 3.123-1.234 6.118-3.43 8.326a11.682 11.682 0 01-8.284 3.45H6.693c-.444 0-.87-.178-1.183-.493a1.687 1.687 0 010-2.379 1.669 1.669 0 011.183-.493h13.385c.444 0 .87-.177 1.184-.492a1.687 1.687 0 000-2.38 1.67 1.67 0 00-1.184-.492h-6.692c-.444 0-.87-.177-1.183-.492a1.687 1.687 0 010-2.38 1.668 1.668 0 011.183-.492h3.346c.444 0 .87-.177 1.183-.493a1.686 1.686 0 000-2.379 1.669 1.669 0 00-1.183-.492h-6.693c-.444 0-.87-.178-1.183-.493a1.687 1.687 0 010-2.379c.314-.315.74-.492 1.183-.492h10.04c.443 0 .869-.178 1.183-.493a1.687 1.687 0 000-2.38 1.669 1.669 0 00-1.184-.492h-3.346c-.444 0-.87-.177-1.183-.492a1.687 1.687 0 010-2.38c.314-.315.74-.492 1.183-.492h15.061c1.538 0 3.062.304 4.483.896a11.709 11.709 0 013.801 2.552 11.779 11.779 0 012.54 3.82c.589 1.429.892 2.96.892 4.507l-.001-.001zm-6.45-2.57l1.06-3.792-2.19 2.202a5.821 5.821 0 00-7.902-.323 5.896 5.896 0 00-.98 7.89 5.84 5.84 0 003.552 2.336 5.814 5.814 0 004.187-.697 5.868 5.868 0 002.613-3.363 5.901 5.901 0 00-.342-4.253h.003z" fill="url(#paint0_linear)"/><path d="M38.124 9.861l-7.26 4.966h-.008l-.012.008a1.68 1.68 0 00-.718 1.242 1.691 1.691 0 00.497 1.345 1.67 1.67 0 002.042.234c.21-.129.39-.303.526-.51l4.933-7.285z" fill="#1B30C0"/></g><defs><linearGradient id="paint0_linear" x1="44" y1="16" x2="0" y2="16" gradientUnits="userSpaceOnUse"><stop stop-color="#0673FD"/><stop offset="1" stop-color="#EE05A8"/></linearGradient><clipPath id="clip0"><path fill="#fff" transform="translate(0 2)" d="M0 0h178v26H0z"/></clipPath></defs></svg>