<svg width="30" height="30" fill="none" xmlns="http://www.w3.org/2000/svg"><path d="M.123 13.441L4.22 1.518A2.252 2.252 0 017.086.124l19.94 6.85a2.253 2.253 0 011.407 2.861L24.337 21.76a2.253 2.253 0 01-2.868 1.393l-19.94-6.849a2.253 2.253 0 01-1.406-2.862z" fill="#59A5E0"/><path d="M24.823 20.346l1.054-3.07L1.661 8.958l-1.055 3.07 24.217 8.318z" fill="#0E0B2A"/><path d="M24.274 12.38l.264-.766-7.486-2.572-.264.767 7.486 2.572zm.626-1.822l.263-.767-7.486-2.572-.263.767 7.486 2.572z" fill="#fff"/><path d="M11.532 5.14l-.87 2.535a.567.567 0 01-.719.358L6.557 6.87a.566.566 0 01-.346-.724l.87-2.536a.568.568 0 01.727-.355l3.37 1.157a.57.57 0 01.354.727z" fill="#E9EFF4"/><path d="M11.532 5.14l-.87 2.535a.567.567 0 01-.719.359L6.557 6.87a.564.564 0 01-.369-.632c2.364.654 4.577.066 5.08-1.398a1.4 1.4 0 00.074-.33c.19.143.273.39.19.63z" fill="#DEE4E9"/><path d="M11.25 5.959l.108-.31-1.545-.531a.733.733 0 00-.343-.71l.178-.521-.31-.106-.179.52a.734.734 0 00-.708.35l-1.545-.532-.106.31 1.514.521-.308.897-1.515-.52-.106.31 1.544.53c-.032.288.1.56.345.711l-.178.52.31.107.18-.52a.732.732 0 00.705-.35l1.545.531.107-.31-1.514-.52.309-.897 1.513.52zm-2.186.43a.424.424 0 11-.803-.275l.418-1.216a.425.425 0 11.803.273L9.064 6.39z" fill="#BBC7D1"/><path opacity=".2" d="M10.237 4.407c-.353 1.029-2.016 1.399-3.713.826l.558-1.623a.568.568 0 01.726-.355l2.492.856a1.11 1.11 0 01-.063.296z" fill="#fff"/><path d="M30 15.143V27.75A2.252 2.252 0 0127.74 30H6.657a2.253 2.253 0 01-2.259-2.25V15.143a2.253 2.253 0 012.26-2.25H27.74a2.252 2.252 0 012.26 2.25z" fill="#65B1EF"/><path d="M26.895 25.362a2.14 2.14 0 11-4.28 0c0-1.191.953-2.144 2.143-2.144 1.183 0 2.137.953 2.137 2.144z" fill="#E24B4B"/><path d="M24.298 25.362a2.14 2.14 0 11-4.28 0c0-1.191.953-2.144 2.145-2.144 1.183 0 2.135.953 2.135 2.144z" fill="#FFD93B"/><path d="M30 15.14v12.61A2.253 2.253 0 0127.74 30H6.656a2.271 2.271 0 01-1.584-.647c11.606-.281 22.237-6.994 24.58-15.422.216.347.348.76.348 1.21z" fill="#59A5E0"/><path d="M15.416 23.616H7.5v1.036h7.916v-1.036zm0 2.457H7.5v1.036h7.916v-1.036z" fill="#fff"/><path d="M30 16.638H4.397v3.245H30v-3.245z" fill="#5A5F63"/><path d="M28.573 16.638a17.476 17.476 0 01-2.142 3.245H30v-3.245h-1.427z" fill="#0E0B2A"/><path d="M26.895 25.362a2.14 2.14 0 11-4.28 0c0-1.191.953-2.144 2.143-2.144 1.183 0 2.137.953 2.137 2.144z" fill="#D03F3F"/><path d="M22.163 27.506c1.183 0 2.135-.96 2.135-2.144 0-.967-.633-1.768-1.503-2.038a26.72 26.72 0 01-2.757 1.836c-.006.068-.02.133-.02.202a2.14 2.14 0 002.145 2.144z" fill="#F4C534"/></svg>