<svg width="30" height="30" fill="none" xmlns="http://www.w3.org/2000/svg"><path d="M8.236 27.289c-1.377-1.565-2.754-3.192-3.63-5.132a11.636 11.636 0 01-.688-6.697c.438-2.254 1.44-4.382 2.879-6.197-.125 1.565.438 3.192 1.502 4.382-.626-3.005.376-6.26 2.378-8.638C12.68 2.63 15.434 1.064 18.313 0c-1.44 1.502-1.627 3.88-1.064 5.883.564 2.003 1.753 3.756 2.817 5.57 1.064 1.816 2.065 3.694 2.128 5.76.563-1.065 1.19-2.129 1.565-3.318.375-1.19.563-2.441.25-3.63 1.127 1.377 1.753 2.753 2.065 4.506.313 1.753.25 3.568.063 5.32-.25 1.94-.751 3.943-1.815 5.57-1.252 1.94-3.255 3.318-5.445 4.069-3.881.688-7.699.125-10.64-2.441z" fill="#F3705A"/><path d="M12.993 29.605c5.132 2.003 10.202-4.069 7.386-8.763 0-.062-.063-.062-.063-.125.25 2.566-.375 4.444-1.565 5.508.626-1.502.188-3.255-.563-4.757-.751-1.44-1.815-2.754-2.629-4.13-.813-1.44-1.44-3.068-1.064-4.695-1.502 1.127-2.566 2.817-3.004 4.632-.438 1.815-.188 3.818.626 5.508-.939-.689-1.627-1.816-1.69-3.005-1.001 1.19-1.627 2.754-1.565 4.319 0 2.44 1.94 4.631 4.131 5.508z" fill="#FFD15C"/></svg>