<svg width="30" height="30" fill="none" xmlns="http://www.w3.org/2000/svg"><path d="M26.71 27.19c-4.59 3.747-18.924 3.747-23.42 0-4.591-3.748-4.123-19.768 0-23.984 4.121-4.216 19.298-4.216 23.42 0 4.122 4.216 4.59 20.236 0 23.983z" fill="#5CA4DA"/><path d="M15.094 20.632C10.972 23.91 6.38 25.597 2.072 25.69-1.114 20.258-.458 7.047 3.29 3.206 6.662-.26 17.249-.916 23.338 1.24c1.499 6.183-1.593 14.053-8.244 19.393z" fill="#6DAFE0"/><path d="M8.63 12.106v1.125H6.006v1.218h2.53v1.124h-2.53v2.248H4.695v-5.715H8.63zm5.714 1.968c0 .937-.374 1.499-1.124 1.78l1.5 2.06h-1.594l-1.311-1.873h-.843v1.874H9.66V12.2h2.155c.937 0 1.499.187 1.873.468.469.188.656.75.656 1.406zm-1.499.655c.188-.187.281-.374.281-.655s-.093-.562-.28-.656a1.87 1.87 0 00-.844-.188h-.937v1.687h.937c.375 0 .656-.094.843-.188zm7.027-2.623v1.125h-2.905v1.218h2.53v1.124h-2.53v1.218h2.905v1.124h-4.216V12.2h4.216v-.094zm5.34 0v1.125h-2.905v1.218h2.53v1.124h-2.53v1.218h2.998v1.124H21.09V12.2h4.123v-.094z" fill="#fff"/></svg>