<svg width="24" height="24" fill="none" xmlns="http://www.w3.org/2000/svg"><path d="M12 4.452a1.14 1.14 0 01-1.161-1.162V1.161A1.14 1.14 0 0112 0a1.14 1.14 0 011.161 1.161v2.13c0 .619-.503 1.16-1.161 1.16z" fill="#76FFE5"/><path d="M12 24a1.14 1.14 0 01-1.161-1.161v-2.13A1.14 1.14 0 0112 19.55a1.14 1.14 0 011.161 1.16v2.13A1.14 1.14 0 0112 24z" fill="#0DBFBA"/><path d="M7.626 5.613a1.17 1.17 0 01-1.007-.58l-1.045-1.82c-.31-.542-.116-1.278.426-1.587.542-.31 1.278-.116 1.587.426L8.632 3.87c.31.542.117 1.277-.425 1.587a1.435 1.435 0 01-.581.155z" fill="#BBFFF2"/><path d="M17.42 22.529c-.388 0-.775-.194-1.007-.58l-1.045-1.82c-.31-.542-.116-1.277.426-1.587.541-.31 1.277-.116 1.587.426l1.045 1.819c.31.542.116 1.277-.426 1.587a1.092 1.092 0 01-.58.155z" fill="#1BCEB8"/><path d="M4.452 8.787c-.194 0-.387-.039-.581-.155l-1.82-1.045C1.51 7.277 1.317 6.542 1.627 6s1.045-.735 1.587-.426l1.82 1.045c.541.31.735 1.046.425 1.588-.232.387-.62.58-1.006.58z" fill="#E1FFF9"/><path d="M21.407 18.58c-.194 0-.387-.038-.581-.154l-1.858-1.045c-.542-.31-.736-1.046-.426-1.587.31-.542 1.045-.736 1.587-.426l1.82 1.045c.541.31.735 1.045.425 1.587-.193.387-.58.58-.967.58z" fill="#26DBC0"/><path d="M3.29 13.161H1.161A1.14 1.14 0 010 12a1.14 1.14 0 011.161-1.161h2.13a1.14 1.14 0 011.16 1.16c0 .659-.541 1.162-1.16 1.162z" fill="#F3FFFD"/><path d="M22.839 13.161h-2.13A1.14 1.14 0 0119.55 12a1.14 1.14 0 011.16-1.161h2.13a1.14 1.14 0 011.16 1.16 1.14 1.14 0 01-1.161 1.162z" fill="#2EE5C6"/><path d="M2.594 18.58c-.388 0-.775-.193-1.007-.58-.31-.542-.116-1.277.426-1.587l1.82-1.045c.541-.31 1.277-.116 1.586.426.31.541.117 1.277-.425 1.587l-1.82 1.045c-.155.116-.348.155-.58.155z" fill="#11AEBA"/><path d="M19.549 8.787c-.388 0-.775-.193-1.007-.58-.31-.542-.116-1.278.426-1.588l1.82-1.045c.541-.31 1.277-.116 1.586.426.31.542.117 1.278-.425 1.587l-1.82 1.045a1.093 1.093 0 01-.58.155z" fill="#3BEDCB"/><path d="M6.58 22.529c-.193 0-.386-.039-.58-.155-.542-.31-.735-1.045-.426-1.587l1.045-1.82c.31-.541 1.046-.735 1.588-.425.541.31.735 1.045.425 1.587l-1.045 1.82c-.232.386-.62.58-1.006.58z" fill="#0FB8BC"/><path d="M16.374 5.613c-.193 0-.387-.039-.58-.155-.542-.31-.736-1.045-.426-1.587l1.045-1.82c.31-.541 1.045-.735 1.587-.425s.735 1.045.426 1.587l-1.045 1.82c-.233.348-.62.58-1.007.58z" fill="#57F7D8"/></svg>