<svg width="24" height="24" fill="none" xmlns="http://www.w3.org/2000/svg"><path d="M8.8 24H5.35c-.4 0-.65-.35-.6-.7l.5-2.7h3.6l.5 2.7c.1.35-.2.7-.55.7zm9.15 0H14.5c-.4 0-.65-.35-.6-.7l.5-2.7H18l.5 2.7c.1.35-.15.7-.55.7z" fill="#F1543F"/><path d="M24 9c0-.25-.05-.4-.05-.4s-.05.15-.05.35c0 .1-.05.25-.1.4-.05.15-.1.35-.2.5-.05.2-.15.4-.3.55-.1.2-.25.4-.4.6-.15.2-.3.4-.5.55-.1.1-.2.2-.35.3-1.2-3.8-5.4-6.65-10.45-6.65-4.65.05-8.6 2.5-10.1 5.9l-.7-.15c-.4-.1-.8.2-.8.6v5.15c0 .4.4.65.8.6l.7-.2c1.5 3.4 5.45 5.85 10.15 5.85 5.65 0 10.25-3.55 10.75-8.05.1-.15.25-.3.35-.4.2-.25.35-.5.5-.75.15-.25.25-.5.35-.75.1-.25.2-.5.2-.75.05-.25.1-.45.1-.7.05-.2.05-.4.05-.6C24 10.75 24 9.1 24 9z" fill="#FF7058"/><path d="M4.15 13.75a1.15 1.15 0 100-2.3 1.15 1.15 0 000 2.3z" fill="#40596B"/><path d="M3.7 12.45a.4.4 0 100-.8.4.4 0 000 .8z" fill="#F2F2F2"/><path d="M16.35 10.15c-.15 0-.25-.05-.35-.15a5.678 5.678 0 00-8 0c-.2.2-.5.2-.7 0-.2-.2-.2-.5 0-.7A6.664 6.664 0 0112 7.35c1.75 0 3.45.7 4.7 1.95.2.2.2.5 0 .7-.1.1-.2.15-.35.15z" fill="#F1543F"/><path d="M8.1 4.75C8.1 2.6 9.85.85 12 .85s3.9 1.75 3.9 3.9c0 1.45-.8 2.75-2 3.4.35.1.65.25.95.4 1.15-.85 1.9-2.25 1.9-3.8C16.75 2.1 14.6 0 12 0S7.25 2.1 7.25 4.75c0 1.55.75 2.95 1.9 3.8.3-.15.65-.3.95-.4-1.15-.65-2-1.95-2-3.4z" fill="#FFD15C"/><path d="M12.35 5.25v.8c.3-.05.45-.25.45-.4 0-.25-.2-.35-.45-.4zm-1-1.4c0 .15.15.25.4.35v-.75c-.25.05-.4.2-.4.4z" fill="#F8B64C"/><path d="M15.9 4.75c0-2.15-1.75-3.9-3.9-3.9S8.1 2.6 8.1 4.75c0 1.45.8 2.75 2 3.4.6-.2 1.2-.3 1.85-.3.65 0 1.25.1 1.85.3 1.25-.65 2.1-1.95 2.1-3.4zM12.35 6.8v.55h-.55V6.8c-.6-.05-1.1-.3-1.4-.6l.45-.65c.2.25.55.45.95.5v-.9c-.65-.2-1.3-.45-1.3-1.25 0-.6.5-1.1 1.3-1.2v-.55h.55v.55c.5.05.9.25 1.2.55l-.45.65c-.2-.2-.5-.3-.75-.4v.8c.6.15 1.3.4 1.3 1.2 0 .7-.45 1.2-1.3 1.3z" fill="#F8B64C"/><path d="M12.35 4.3v-.8c.25.05.55.2.75.4l.45-.65c-.3-.3-.75-.5-1.2-.55v-.55h-.55v.55c-.85.1-1.3.6-1.3 1.2 0 .8.65 1.05 1.3 1.2V6c-.4-.05-.75-.3-.95-.5l-.45.65c.35.35.8.55 1.4.6v.55h.55v-.55c.9-.1 1.3-.6 1.3-1.25 0-.8-.7-1.05-1.3-1.2zm-.6-.1c-.25-.1-.4-.15-.4-.35 0-.2.15-.35.4-.4v.75zm.6 1.85v-.8c.25.1.45.2.45.4 0 .15-.15.3-.45.4z" fill="#FFD15C"/></svg>