<svg width="24" height="24" fill="none" xmlns="http://www.w3.org/2000/svg"><g clip-path="url(#clip0)"><path d="M12 4.05c2.4 0 4.6 1 6.2 2.55l2.3-2.3C18.35 2.15 15.35.8 12 .8 8.7.8 5.7 2.15 3.5 4.3l2.3 2.3A8.73 8.73 0 0112 4.05z" fill="#F8B64C"/><path d="M5.8 6.6L3.5 4.3C1.35 6.5 0 9.5 0 12.8s1.35 6.3 3.5 8.5L5.8 19a8.73 8.73 0 01-2.55-6.2c0-2.4.95-4.6 2.55-6.2z" fill="#54C0EB"/><path d="M20.5 4.3l-2.3 2.3a8.73 8.73 0 012.55 6.2c0 2.4-1 4.6-2.55 6.2l2.3 2.3c2.15-2.15 3.5-5.15 3.5-8.5 0-3.3-1.35-6.3-3.5-8.5z" fill="#F1543F"/><path d="M18.2 6.6L16 8.8c-1.05-1-2.45-1.65-4-1.65-1.55 0-3 .65-4 1.65L5.8 6.6A8.73 8.73 0 0112 4.05c2.4 0 4.6.95 6.2 2.55z" fill="#FFD15C"/><path d="M8 16.8L5.8 19a8.73 8.73 0 01-2.55-6.2c0-2.4 1-4.6 2.55-6.2L8 8.8c-1 1-1.65 2.45-1.65 4-.05 1.55.6 3 1.65 4z" fill="#84DBFF"/><path d="M20.75 12.8c0 2.4-1 4.6-2.55 6.2L16 16.8c1-1.05 1.65-2.45 1.65-4 0-1.55-.65-3-1.65-4l2.2-2.2a8.73 8.73 0 012.55 6.2z" fill="#FF7058"/><path d="M19.7 8.05L13.2 13c-.1.6-.6 1-1.2 1-.7 0-1.25-.55-1.25-1.25S11.3 11.5 12 11.5c.15 0 .25 0 .4.05l7.3-3.5z" fill="#40596B"/><path d="M16.3 23.2H7.7a1.9 1.9 0 110-3.8h8.55c1.05 0 1.9.85 1.9 1.9.05 1.05-.8 1.9-1.85 1.9z" fill="#CDD6E0"/><path d="M12 13.3a.5.5 0 100-1 .5.5 0 000 1z" fill="#fff"/></g><defs><clipPath id="clip0"><path fill="#fff" d="M0 0h24v24H0z"/></clipPath></defs></svg>