<svg width="20" height="20" fill="none" xmlns="http://www.w3.org/2000/svg"><path d="M8.132 15.359l-.035-.017a.583.583 0 01-.117.17 2.461 2.461 0 01-1.746.721 2.46 2.46 0 01-1.745-.722 2.452 2.452 0 01-.723-1.745c0-.66.256-1.28.723-1.746l2.434-2.434a2.453 2.453 0 011.746-.723 2.453 2.453 0 011.746.723c.245.245.57.38.916.38.347 0 .672-.135.917-.38l1.657-1.657a6.257 6.257 0 00-2.542-2.23 6.27 6.27 0 00-2.686-.608 6.276 6.276 0 00-2.882.704 6.222 6.222 0 00-1.528 1.121L1.826 9.357A6.193 6.193 0 000 13.766c0 1.665.649 3.23 1.826 4.408A6.194 6.194 0 006.234 20a6.197 6.197 0 004.409-1.826l2.266-2.266a7.438 7.438 0 01-1.586.172 7.45 7.45 0 01-3.19-.721z" fill="#888BA0"/><path d="M18.174 1.826A6.194 6.194 0 0013.766 0a6.197 6.197 0 00-4.409 1.826L7.091 4.092a7.439 7.439 0 011.585-.172c1.1 0 2.204.249 3.192.72.011.007.023.012.035.018a.584.584 0 01.117-.17 2.452 2.452 0 011.746-.722c.66 0 1.279.256 1.745.723.466.466.723 1.086.723 1.745 0 .66-.257 1.28-.723 1.746l-2.434 2.434a2.452 2.452 0 01-1.746.723 2.452 2.452 0 01-1.743-.72l-.004-.005a1.288 1.288 0 00-.915-.378 1.29 1.29 0 00-.918.38l-1.11 1.11v.001l-.546.546a6.247 6.247 0 001.834 1.834 6.209 6.209 0 003.394 1.004 6.277 6.277 0 002.881-.704l-.002.004.002-.004a6.217 6.217 0 001.529-1.121l2.44-2.441A6.193 6.193 0 0020 6.234c0-1.665-.649-3.23-1.826-4.408z" fill="#888BA0"/></svg>