<svg width="20" height="18" fill="none" xmlns="http://www.w3.org/2000/svg"><path d="M19.414 16.417h-6.488a8.646 8.646 0 001.737-1.344A8.533 8.533 0 0017.178 9a8.533 8.533 0 00-2.515-6.073A8.533 8.533 0 008.589.41a8.533 8.533 0 00-6.073 2.516A8.533 8.533 0 000 9a8.53 8.53 0 002.516 6.073 8.532 8.532 0 006.022 2.515l.012.001h10.864a.586.586 0 000-1.172zM5.704 9.801c1.139 0 2.065.926 2.065 2.065a2.067 2.067 0 01-2.064 2.064 2.067 2.067 0 01-2.065-2.064c0-1.139.926-2.065 2.065-2.065zM3.64 6.134c0-1.138.926-2.064 2.065-2.064 1.138 0 2.064.926 2.064 2.064A2.067 2.067 0 015.705 8.2 2.067 2.067 0 013.64 6.134zm9.898 0A2.067 2.067 0 0111.474 8.2a2.067 2.067 0 01-2.065-2.065c0-1.138.926-2.064 2.065-2.064 1.138 0 2.064.926 2.064 2.064zm-2.064 3.667c1.138 0 2.064.926 2.064 2.065a2.067 2.067 0 01-2.064 2.064 2.067 2.067 0 01-2.065-2.064c0-1.139.926-2.065 2.065-2.065z" fill="#888BA0"/></svg>