<svg width="14" height="14" fill="none" xmlns="http://www.w3.org/2000/svg"><path d="M13.417 2.333h-3.045l-.192-.767A2.063 2.063 0 008.175 0h-2.35C4.875 0 4.05.644 3.82 1.566l-.192.767H.583a.583.583 0 100 1.167h.615l.491 8.847c.052.927.82 1.653 1.749 1.653h7.124c.929 0 1.697-.726 1.749-1.653L12.8 3.5h.616a.583.583 0 100-1.167zM4.95 1.85a.9.9 0 01.874-.682h2.35a.9.9 0 01.874.682l.12.484H4.831l.12-.484zm.299 9.234a.583.583 0 11-1.167 0V5.25a.583.583 0 111.167 0v5.833zm2.333 0a.583.583 0 11-1.166 0V5.25a.583.583 0 111.166 0v5.833zm2.334 0a.583.583 0 11-1.167 0V5.25a.583.583 0 111.167 0v5.833z" fill="#888BA0"/></svg>