<svg width="16" height="18" fill="none" xmlns="http://www.w3.org/2000/svg"><path d="M11.65 7.754c.476-.102.916-.496.988-1.371.06-.716-.124-1.085-.395-1.273.752-3.067-1.324-3.668-1.324-3.668S9.37-1.19 6.342.657c-.385.235-.984.685-1.34 1.15-.573.609-.963 1.599-1.024 3.203-.37.14-.66.498-.588 1.372.076.915.553 1.304 1.055 1.384.678 1.65 2.016 3.01 3.6 3.01 1.587 0 2.928-1.366 3.604-3.022zm-3.605 2.253c-1.831 0-3.306-2.486-3.306-4.545 0-.282.01-.544.026-.786 2.679.117 4.263-.957 5.125-1.889.817.815 1.242 1.844 1.46 2.608v.067c0 2.059-1.474 4.545-3.305 4.545zM6.996 13.12l.212-.878a.512.512 0 01.147-.254 1.223 1.223 0 01-.063-.049l-1.894-1.567-1.153.27C2.294 11.1.92 12.747.92 14.638v2.482c0 .489.434.879.954.879h4.879l.744-4.241a.517.517 0 01-.5-.64zm4.778-2.479l-1.136-.27-1.892 1.568c-.021.017-.041.034-.063.049a.513.513 0 01.148.254l.212.878a.518.518 0 01-.5.64L9.287 18h4.878c.52 0 .916-.39.916-.878v-2.483c0-1.89-1.355-3.539-3.307-3.998z" fill="#888BA0"/></svg>