<svg width="122" height="48" fill="none" xmlns="http://www.w3.org/2000/svg"><path d="M57.565 23.45v14.07H53.07V2.774h11.921c1.423-.03 2.838.22 4.162.737a10.787 10.787 0 013.557 2.27 9.672 9.672 0 012.412 3.32 9.612 9.612 0 01.813 4.014 9.569 9.569 0 01-.8 4.037 9.63 9.63 0 01-2.425 3.337c-2.084 1.974-4.657 2.96-7.719 2.959h-7.426v.002zm0-16.398V19.18h7.538a5.979 5.979 0 002.414-.432 5.944 5.944 0 002.033-1.365 5.92 5.92 0 001.336-1.941 5.886 5.886 0 00-1.336-6.55 5.863 5.863 0 00-2.024-1.397 5.899 5.899 0 00-2.423-.447h-7.538v.003zm28.726 5.918c3.322 0 5.945.882 7.867 2.646 1.923 1.763 2.883 4.18 2.881 7.252V37.52H92.74v-3.299h-.195c-1.862 2.717-4.337 4.076-7.426 4.076-2.638 0-4.844-.777-6.62-2.33a7.44 7.44 0 01-1.994-2.611 7.392 7.392 0 01-.669-3.21c0-2.46.936-4.417 2.809-5.87 1.872-1.452 4.371-2.18 7.498-2.184 2.67 0 4.867.485 6.594 1.455v-1.02a5.052 5.052 0 00-.48-2.183 5.087 5.087 0 00-1.376-1.768 6.39 6.39 0 00-4.338-1.627c-2.511 0-4.498 1.052-5.96 3.155l-3.96-2.476c2.178-3.105 5.4-4.657 9.668-4.657zm-5.815 17.273c-.003.568.13 1.128.39 1.635.26.506.637.944 1.1 1.276a5.508 5.508 0 003.493 1.164 7.192 7.192 0 005.056-2.085c1.489-1.391 2.234-3.024 2.234-4.898-1.402-1.11-3.356-1.664-5.863-1.664-1.826 0-3.348.437-4.567 1.312-1.232.887-1.843 1.965-1.843 3.26zm41.242-16.496L106.71 48h-4.64l5.57-11.985-9.869-22.268h4.886l7.132 17.078h.098l6.938-17.078h4.893z" fill="#5F6368"/><path d="M39.402 20.417a23.62 23.62 0 00-.347-4.059H20.1v7.688h10.857a9.203 9.203 0 01-1.383 3.441 9.272 9.272 0 01-2.632 2.625v4.99h6.48c3.794-3.473 5.98-8.61 5.98-14.685z" fill="#4285F4"/><path d="M20.1 39.924c5.424 0 9.99-1.769 13.322-4.819l-6.48-4.99c-1.804 1.215-4.126 1.908-6.843 1.908-5.242 0-9.693-3.51-11.284-8.24H2.14v5.143a20.014 20.014 0 007.41 8.027 20.205 20.205 0 0010.55 2.97z" fill="#34A853"/><path d="M8.815 23.783a11.882 11.882 0 010-7.64v-5.144H2.14a19.848 19.848 0 000 17.927l6.675-5.143z" fill="#FBBC04"/><path d="M20.1 7.903a10.955 10.955 0 017.71 2.994L33.547 5.2A19.388 19.388 0 0020.1 0 20.205 20.205 0 009.55 2.972 20.014 20.014 0 002.14 11l6.675 5.143c1.591-4.73 6.042-8.24 11.284-8.24z" fill="#EA4335"/></svg>