<svg width="100" height="60" fill="none" xmlns="http://www.w3.org/2000/svg"><path d="M100 30c0 16.462-13.385 30-30 30-16.462 0-30-13.538-30-30S53.385 0 69.846 0C86.616 0 100 13.539 100 30z" fill="#F9B50B"/><path d="M59.846 30.154c0-2.154-.307-4.308-.615-6.308H40.769c.154-1.077.462-2 .77-3.23H58c-.308-1.078-.77-2.154-1.23-3.231h-14c.46-1.077 1.076-2 1.691-3.231h10.616a21.001 21.001 0 00-2.308-3.23h-5.846c.923-1.078 1.846-2 3.077-3.078C44.77 2.923 37.692 0 29.846 0 13.54.462 0 13.539 0 30c0 16.462 13.385 30 30 30 7.846 0 14.77-3.077 20.154-7.846 1.077-.923 2-2 3.077-3.23h-6.154c-.77-.924-1.538-2-2.154-3.078h10.462c.615-.923 1.23-2 1.692-3.23h-14c-.462-.924-.923-2-1.23-3.231h16.46c.924-2.77 1.54-5.846 1.54-9.231z" fill="#C8191C"/><path d="M40.615 37.692l.461-2.77c-.153 0-.461.155-.769.155-1.077 0-1.23-.616-1.077-.923l.923-5.539h1.693l.461-3.077H40.77l.307-1.846h-3.23S36 34.154 36 35.385c0 1.846 1.076 2.769 2.615 2.769a4.72 4.72 0 002-.462zm1.077-5.077c0 4.462 3.077 5.539 5.539 5.539 2.307 0 3.384-.462 3.384-.462l.616-3.077s-1.693.77-3.385.77c-3.538 0-2.923-2.616-2.923-2.616h6.462s.461-2 .461-2.923c0-2-1.077-4.615-4.615-4.615-3.077-.154-5.539 3.384-5.539 7.384zM47.231 28c1.692 0 1.384 2 1.384 2.154h-3.538C45.231 30 45.539 28 47.231 28zm20.154 9.692L68 34.154s-1.539.769-2.77.769c-2.153 0-3.23-1.692-3.23-3.692 0-3.847 1.846-5.847 4.154-5.847 1.538 0 2.923.924 2.923.924l.461-3.385s-1.846-.77-3.692-.77c-3.692 0-7.23 3.232-7.23 9.232 0 4 1.845 6.615 5.692 6.615 1.384.154 3.076-.308 3.076-.308zM23.23 25.077c-2.153 0-3.846.615-3.846.615l-.461 2.77s1.384-.616 3.538-.616c1.077 0 2 .154 2 1.077 0 .616-.154.77-.154.77h-1.384c-2.77 0-5.692 1.076-5.692 4.769 0 2.923 1.846 3.538 3.076 3.538 2.154 0 3.231-1.385 3.385-1.385l-.154 1.231h2.616l1.23-8.769c0-3.846-3.077-4-4.154-4zm.616 7.077c0 .461-.308 3.077-2.154 3.077-.923 0-1.23-.77-1.23-1.23 0-.77.46-1.847 2.922-1.847h.462zM30.46 38c.77 0 4.77.154 4.77-4.154 0-4-3.846-3.23-3.846-4.77 0-.768.615-1.076 1.692-1.076.462 0 2.154.154 2.154.154l.462-2.923s-1.077-.308-3.077-.308c-2.308 0-4.77.923-4.77 4.154 0 3.692 4 3.384 4 4.77 0 .922-1.076 1.076-1.846 1.076-1.384 0-2.923-.462-2.923-.462l-.461 2.924c.307.307 1.23.615 3.846.615zm63.386-15.385l-.615 4.308S92 25.385 90.154 25.385c-2.923 0-5.385 3.538-5.385 7.692 0 2.615 1.23 5.23 4 5.23 1.846 0 3.077-1.23 3.077-1.23l-.154 1.077h3.23l2.309-15.231-3.385-.308zm-1.538 8.308c0 1.692-.77 4-2.616 4C88.615 34.923 88 34 88 32.308c0-2.616 1.077-4.154 2.615-4.154 1.077.154 1.693.923 1.693 2.77zM5.846 37.846l1.846-11.384L8 37.846h2.154l4.153-11.384-1.692 11.384H16l2.615-15.23h-5.23L10.153 32 10 22.615H5.384L2.77 37.846h3.077z" fill="#fff"/><path d="M55.077 37.846c.923-5.23 1.077-9.538 3.385-8.769.307-2 .769-2.923 1.077-3.692h-.616c-1.384 0-2.615 1.846-2.615 1.846l.307-1.693H53.54l-2 12.308h3.538zM74.77 25.077c-2.154 0-3.847.615-3.847.615l-.461 2.77s1.385-.616 3.538-.616c1.077 0 2 .154 2 1.077 0 .616-.153.77-.153.77h-1.385c-2.77 0-5.693 1.076-5.693 4.769 0 2.923 1.847 3.538 3.078 3.538 2.153 0 3.23-1.385 3.384-1.385l-.154 1.231H78l1.231-8.769c0-3.846-3.384-4-4.462-4zm.769 7.077c0 .461-.308 3.077-2.154 3.077-.923 0-1.23-.77-1.23-1.23 0-.77.46-1.847 2.922-1.847h.462zm6.153 5.692c.923-5.23 1.077-9.538 3.384-8.769.308-2 .77-2.923 1.077-3.692h-.615c-1.385 0-2.615 1.846-2.615 1.846l.307-1.693h-3.077l-2 12.308h3.539z" fill="#fff"/></svg>