<svg width="138" height="37" fill="none" xmlns="http://www.w3.org/2000/svg"><path d="M17.742 9.996c-.5 3.748-3.498 3.748-6.247 3.748h-1.5l1.25-7.247c0-.5.5-.75 1-.75h.75c1.999 0 3.748 0 4.747 1v3.249zM16.492 0H5.749c-.75 0-1.25.5-1.5 1.25L0 28.737c0 .5.25 1 1 1h4.997c.75 0 1.25-.5 1.5-1.25l1.25-7.497c0-.75.749-1.25 1.499-1.25h3.498c6.997 0 10.995-3.498 12.245-10.245.5-2.999 0-5.248-1.25-6.997C22.74.999 19.991 0 16.493 0zm24.741 19.991c-.5 2.999-2.75 4.998-5.748 4.998-1.5 0-2.749-.5-3.498-1.5-.75-1-1-2.249-.75-3.498.5-2.999 2.749-4.998 5.747-4.998 1.5 0 2.75.5 3.499 1.5.5.75 1 1.999.75 3.498zm6.997-9.996h-4.998c-.5 0-.75.25-1 .75l-.25 1.5-.25-.5c-1-1.5-3.498-2.25-5.997-2.25-5.748 0-10.495 4.249-11.495 10.246-.5 2.999.25 5.748 1.999 7.747 1.5 1.749 3.748 2.499 6.497 2.499 4.498 0 6.997-2.999 6.997-2.999l-.25 1.5c0 .5.25.999 1 .999h4.498c.75 0 1.25-.5 1.5-1.25l2.748-17.492c0-.25-.25-.75-1-.75zm27.24.001h-5.248c-.5 0-1 .25-1.25.75L61.975 21.24l-2.999-9.996c-.25-.75-.75-1-1.499-1H52.48c-.5 0-1 .5-.75 1.25l5.748 16.493-5.248 7.497c-.5.5 0 1.5.75 1.5h5.248c.5 0 1-.25 1.25-.75l16.992-24.74c.25-.75-.25-1.5-1-1.5z" fill="#263577"/><path d="M93.711 9.996c-.5 3.748-3.498 3.748-6.247 3.748h-1.5l1.25-7.247c0-.5.5-.75 1-.75h.75c1.998 0 3.748 0 4.747 1 .25 1 .25 2 0 3.249zM92.461 0H81.717c-.75 0-1.25.5-1.499 1.25L75.97 28.738c0 .5.25 1 1 1h5.497c.5 0 1-.25 1-1l1.249-7.747c0-.75.75-1.25 1.5-1.25h3.498c6.997 0 10.995-3.498 12.245-10.245.499-2.999 0-5.248-1.25-6.997C98.959.999 96.21 0 92.462 0zm24.989 19.991c-.5 2.999-2.749 4.998-5.748 4.998-1.499 0-2.748-.5-3.498-1.5s-1-2.249-.75-3.498c.5-2.999 2.749-4.998 5.748-4.998 1.499 0 2.749.5 3.498 1.5.5.75 1 1.999.75 3.498zm6.997-9.996h-4.998c-.5 0-.75.25-1 .75l-.249 1.5-.25-.5c-1-1.5-3.499-2.25-5.998-2.25-5.747 0-10.495 4.249-11.495 10.246-.5 2.999.25 5.748 1.999 7.747 1.5 1.749 3.749 2.499 6.498 2.499 4.498 0 6.996-2.999 6.996-2.999l-.249 1.5c0 .5.25.999.999.999h4.498c.75 0 1.25-.5 1.5-1.25l2.748-17.492c0-.25-.499-.75-.999-.75zM130.445.75l-4.498 27.988c0 .5.25 1 1 1h4.498c.75 0 1.249-.5 1.499-1.25L137.192 1c0-.5-.249-1-.999-1h-4.998c-.25 0-.5.5-.75.75z" fill="#2199D6"/></svg>