<svg width="420" height="420" fill="none" xmlns="http://www.w3.org/2000/svg"><g clip-path="url(#clip0)"><path d="M278.354 111.274h-69.265a9.97 9.97 0 01-7.874-3.817 10.092 10.092 0 01-1.891-8.659 175.157 175.157 0 000-81.348 10.092 10.092 0 011.891-8.658 9.957 9.957 0 017.874-3.816h69.265a10.097 10.097 0 019.936 8.474 293.624 293.624 0 010 89.349 10.098 10.098 0 01-9.936 8.475z" fill="#E6E6E6"/><path d="M209.089 10.188a4.79 4.79 0 00-3.782 1.831 4.923 4.923 0 00-.916 4.216 180.397 180.397 0 01.001 83.779 4.908 4.908 0 00.914 4.215l.001.001a4.778 4.778 0 003.782 1.832h69.264a4.847 4.847 0 004.785-4.054 288.374 288.374 0 000-87.766 4.847 4.847 0 00-4.785-4.054h-69.264z" fill="#fff"/><path d="M263.239 35.25h-36.347a5.215 5.215 0 01-5.211-5.212V28a5.216 5.216 0 015.211-5.212h36.347A5.22 5.22 0 01268.451 28v2.037a5.22 5.22 0 01-5.212 5.211zm0 25.734h-36.347a5.215 5.215 0 01-5.211-5.212v-2.036a5.215 5.215 0 015.211-5.212h36.347a5.22 5.22 0 015.212 5.212v2.036a5.22 5.22 0 01-5.212 5.212zm0 25.736h-36.347a5.215 5.215 0 01-5.211-5.213v-2.036a5.216 5.216 0 015.211-5.212h36.347a5.22 5.22 0 015.212 5.212v2.036a5.22 5.22 0 01-5.212 5.212zm145.406 90.572h-69.264a9.966 9.966 0 01-7.875-3.816 10.101 10.101 0 01-1.89-8.659 175.17 175.17 0 00-.001-81.348 10.092 10.092 0 011.891-8.658 9.974 9.974 0 017.875-3.817h69.264a10.095 10.095 0 019.936 8.475 293.561 293.561 0 010 89.349 10.093 10.093 0 01-9.936 8.474z" fill="#E6E6E6"/><path d="M339.381 76.206a4.793 4.793 0 00-3.782 1.832 4.923 4.923 0 00-.916 4.216 180.399 180.399 0 01.001 83.779 4.908 4.908 0 00.914 4.215h.001a4.788 4.788 0 003.782 1.832h69.264a4.846 4.846 0 004.785-4.054 288.37 288.37 0 000-87.766 4.844 4.844 0 00-4.785-4.054h-69.264z" fill="#fff"/><path d="M270.536 252.432h-69.264a10.4 10.4 0 01-8.216-3.982 10.528 10.528 0 01-1.971-9.029 174.735 174.735 0 00-.001-81.145 10.532 10.532 0 011.972-9.029 10.402 10.402 0 018.216-3.982h69.264a10.53 10.53 0 0110.365 8.843 293.982 293.982 0 010 89.482 10.53 10.53 0 01-10.365 8.842z" fill="#EBEDF5"/><path d="M393.53 114.298h-36.347a5.218 5.218 0 01-5.211-5.212v-2.037a5.215 5.215 0 015.211-5.211h36.347a5.216 5.216 0 015.212 5.211v2.037a5.22 5.22 0 01-5.212 5.212zm0 25.735h-36.347a5.218 5.218 0 01-5.211-5.212v-2.037a5.215 5.215 0 015.211-5.211h36.347a5.216 5.216 0 015.212 5.211v2.037a5.22 5.22 0 01-5.212 5.212z" fill="#E6E6E6"/><path d="M245.653 195.884h-6.949v-6.949a2.606 2.606 0 10-5.212 0v6.949h-6.949a2.606 2.606 0 000 5.212h6.949v6.95a2.608 2.608 0 002.606 2.606 2.607 2.607 0 002.606-2.606v-6.95h6.949a2.607 2.607 0 000-5.212z" fill="#F701A5"/><path d="M261.288 14.767h-36.482a3.91 3.91 0 01-3.909-3.909V3.91A3.917 3.917 0 01224.806 0h36.482a3.91 3.91 0 013.909 3.909v6.95a3.917 3.917 0 01-3.909 3.908zm132.028 66.887h-36.481a3.913 3.913 0 01-3.909-3.908v-6.95a3.912 3.912 0 013.909-3.909h36.481a3.915 3.915 0 013.909 3.91v6.949a3.916 3.916 0 01-3.909 3.909z" fill="#CCC"/><path d="M76.956 409.195h10.649l3.33-41.078h-13.98v41.078z" fill="#FFB8B8"/><path d="M74.24 405.718l20.97-.001h.002a13.375 13.375 0 019.45 3.914 13.364 13.364 0 013.915 9.451v.435l-34.337.001v-13.8z" fill="#F701A5"/><path d="M19.627 409.195h10.649l5.067-41.078H19.625l.002 41.078z" fill="#FFB8B8"/><path d="M16.911 405.718l20.972-.001a13.377 13.377 0 019.451 3.914 13.376 13.376 0 013.914 9.451v.435l-34.336.001v-13.8z" fill="#F701A5"/><path d="M21.517 396.218a4.327 4.327 0 01-2.932-1.145A4.307 4.307 0 0117.182 392l-4.27-153.07 60.638 15.16 18.71 56.131a61.216 61.216 0 013.079 22.433l-2.323 54.41a4.34 4.34 0 01-4.339 4.134h-10.17a4.36 4.36 0 01-4.304-3.761l-7.27-60.061a32.856 32.856 0 00-4.804-13.173l-14.306-22.651a.873.873 0 00-.923-.384.866.866 0 00-.673.74l-11.226 99.974a4.335 4.335 0 01-4.071 3.819l-9.166.51a5.096 5.096 0 01-.247.007z" fill="#1B30C0"/><path d="M63.459 139.827c11.782 0 21.334-9.552 21.334-21.336 0-11.783-9.552-21.335-21.334-21.335-11.783 0-21.334 9.552-21.334 21.335 0 11.784 9.551 21.336 21.334 21.336z" fill="#FFB8B8"/><path d="M73.26 260.315a4.39 4.39 0 01-1.089-.138L12.007 244.75a4.343 4.343 0 01-3.182-5.052l13.817-74.437a27.11 27.11 0 0115.852-19.579 26.156 26.156 0 0124.552 1.802c.842.526 1.69 1.099 2.521 1.704a26.89 26.89 0 0110.926 21.308l1.1 85.414a4.349 4.349 0 01-4.334 4.405z" fill="#0076FF"/><path d="M18.197 261.191a8.74 8.74 0 01.621-10.628 8.738 8.738 0 013.039-2.257l-2.676-30.926 14.18 7.686.368 28.19a8.782 8.782 0 01-15.532 7.935z" fill="#FFB8B8"/><path d="M23.263 244.216a4.794 4.794 0 01-3.388-1.406 4.776 4.776 0 01-1.248-2.207l-6.97-27.696a41.15 41.15 0 013.268-28.783l14.6-28.564a13.497 13.497 0 0116.337-9.571 13.33 13.33 0 018.23 6.168 13.52 13.52 0 011.437 10.348l-20.784 46.479.247 27.828a4.797 4.797 0 01-3.114 4.521l-6.955 2.584a4.775 4.775 0 01-1.66.299z" fill="#0076FF"/><path d="M122.75 249.815a8.738 8.738 0 01-7.378-11.179L90.189 220.49l15.076-5.735 21.603 18.111a8.78 8.78 0 015.469 10.304 8.781 8.781 0 01-9.587 6.645z" fill="#FFB8B8"/><path d="M109.566 236.564a4.785 4.785 0 01-2.139-.505l-25.536-12.784a41.16 41.16 0 01-19.684-21.252l-12.123-29.7a13.504 13.504 0 013.403-18.628 13.328 13.328 0 0110.067-2.21 13.53 13.53 0 018.757 5.657l21.667 46.074 21.251 17.966a4.79 4.79 0 011.396 5.309l-2.579 6.957a4.76 4.76 0 01-1.744 2.255 4.772 4.772 0 01-2.736.861z" fill="#0076FF"/><path d="M58.978 140.153c1.134.496 3.455-8.536 2.415-10.343-1.546-2.687-1.455-2.667-2.481-4.445-1.027-1.777-1.256-4.21.073-5.774 1.33-1.565 4.406-1.357 5.012.604-.39-3.725 3.294-6.719 6.943-7.56 3.65-.842 7.498-.319 11.168-1.068 4.258-.869 8.688-4.439 6.99-9.122a6.597 6.597 0 00-1.287-2.114c-1.963-2.207-4.709-3.15-7.394-4.06-5.585-1.897-11.323-3.816-17.217-3.607a25.013 25.013 0 00-22.103 16.165 22.733 22.733 0 00-.941 3.497c-2.024 10.879 4.294 21.61 14.554 25.753l4.268 2.074z" fill="#2F2E41"/><path opacity=".2" d="M33.79 237.444l.483-28.605 15.151-30.464-12.16 31.271-3.475 27.798z" fill="#000"/><path d="M171.183 309.23l-63.963-26.577a9.976 9.976 0 01-5.808-6.546 10.098 10.098 0 011.576-8.722 175.15 175.15 0 0031.21-75.122 10.088 10.088 0 015.068-7.27 9.963 9.963 0 018.736-.503l63.963 26.578a10.095 10.095 0 015.924 11.638 293.605 293.605 0 01-34.279 82.511 10.1 10.1 0 01-12.427 4.013z" fill="#E6E6E6"/><path d="M146.003 189.303a4.8 4.8 0 00-4.196.24 4.928 4.928 0 00-2.463 3.542 180.385 180.385 0 01-32.142 77.367 4.9 4.9 0 00-.876 2.033 4.905 4.905 0 00.104 2.211 4.77 4.77 0 001.032 1.894 4.772 4.772 0 001.758 1.249l63.963 26.578a4.851 4.851 0 005.974-1.908 288.387 288.387 0 0033.672-81.049 4.85 4.85 0 00-2.863-5.579l-63.963-26.578z" fill="#fff"/><path d="M180.06 248.466l-33.565-13.947a5.218 5.218 0 01-2.813-6.812l.782-1.881a5.217 5.217 0 016.812-2.814l33.565 13.947a5.22 5.22 0 012.813 6.813l-.781 1.881a5.22 5.22 0 01-6.813 2.813zm-9.874 23.765l-33.565-13.947a5.215 5.215 0 01-2.813-6.812l.782-1.881a5.215 5.215 0 016.812-2.813l33.565 13.946a5.22 5.22 0 012.813 6.813l-.781 1.881a5.22 5.22 0 01-6.813 2.813z" fill="#0076FF"/><path d="M193.51 215.066c-.502 0-1-.098-1.465-.287l-33.822-13.675a3.914 3.914 0 01-2.159-5.089l2.605-6.443a3.908 3.908 0 015.088-2.159l33.822 13.675a3.916 3.916 0 012.159 5.089l-2.605 6.443a3.912 3.912 0 01-3.623 2.446zM122.474 420H.869a.872.872 0 01-.869-.869.869.869 0 01.869-.868h121.605a.868.868 0 110 1.737z" fill="#CCC"/></g><defs><clipPath id="clip0"><path fill="#fff" d="M0 0h420v420H0z"/></clipPath></defs></svg>